<svg id="Capa_1" data-name="Capa 1" xmlns="http://www.w3.org/2000/svg" viewBox="0 0 44.16 54.62"><defs><style>.cls-1{fill:#b28a6c;}</style></defs><title>WEB_Marfil_novios_04</title><path class="cls-1" d="M43.39,22.86a.78.78,0,0,0,.77-.78V19a.77.77,0,0,0-.77-.77H41.84V16.66a.78.78,0,0,0-.78-.78H33.31a.78.78,0,0,0-.77.78V19h-.78V16.66a.77.77,0,0,0-.77-.78H23.24a.77.77,0,0,0-.77.78V19h-.78V16.66a.77.77,0,0,0-.77-.78H13.17a.77.77,0,0,0-.77.78V19h-.78V16.66a.78.78,0,0,0-.77-.78H3.1a.78.78,0,0,0-.78.78v1.55H.77A.77.77,0,0,0,0,19v3.1a.78.78,0,0,0,.77.78H2.32V47.65H.77a.77.77,0,0,0-.77.77v3.1a.78.78,0,0,0,.77.78H2.32v1.55a.78.78,0,0,0,.78.77h7.75a.78.78,0,0,0,.77-.77V26.73h.78V53.85a.77.77,0,0,0,.77.77h7.75a.77.77,0,0,0,.77-.77V26.73h.78V53.85a.77.77,0,0,0,.77.77H31a.77.77,0,0,0,.77-.77V26.73h.78V53.85a.78.78,0,0,0,.77.77h7.75a.78.78,0,0,0,.78-.77V52.3h1.55a.78.78,0,0,0,.77-.78v-3.1a.77.77,0,0,0-.77-.77H41.84V22.86Zm-.78-3.1v1.55h-.77V19.76Zm-8.52,5.42V23.63h2.32v1.55Zm6.2-3.1H38V20.53h2.33Zm-3.88,0H34.09V20.53h2.32ZM38,23.63h2.33v1.55H38Zm2.33-6.2V19H38V17.43Zm-6.2,0h2.32V19H34.09Zm-1.55,3.1v1.55h-.78V20.53ZM24,25.18V23.63h2.32v1.55Zm0-3.1V20.53h2.32v1.55Zm3.87,1.55h2.32v1.55H27.89Zm0-1.55V20.53h2.32v1.55Zm2.32-4.65V19H27.89V17.43Zm-6.19,0h2.32V19H24Zm-1.55,3.1v1.55h-.78V20.53ZM14,25.18V23.63h2.32v1.55Zm0-3.1V20.53h2.32v1.55Zm3.87,1.55h2.32v1.55H17.82Zm0-1.55V20.53h2.32v1.55Zm2.32-4.65V19H17.82V17.43Zm-6.19,0h2.32V19H14Zm-1.55,3.1v1.55h-.78V20.53ZM3.87,25.18V23.63H6.2v1.55Zm0-4.65H6.2v1.55H3.87Zm3.88,3.1h2.32v1.55H7.75Zm0-1.55V20.53h2.32v1.55Zm2.32-4.65V19H7.75V17.43Zm-6.2,0H6.2V19H3.87ZM1.55,21.31V19.76h.77v1.55Zm0,29.44V49.2h.77v1.55Zm8.52,2.32H3.87V26.73h6.2Zm1.55-27.89V23.63h.78v1.55Zm8.52,27.89H14V26.73h6.19Zm1.55-27.89V23.63h.78v1.55Zm8.52,27.89H24V26.73h6.19Zm1.55-27.89V23.63h.78v1.55Zm2.33,27.89V26.73h6.2V48.42h0v3.1h0v1.55Zm8.52-3.87v1.55h-.77V49.2Z"/><path class="cls-1" d="M12.62,14.11a.8.8,0,0,0,1.1,0,4.78,4.78,0,0,0,1.77-3.67,18.18,18.18,0,0,0-1-4.24,13,13,0,0,1-.6-2.33,5.7,5.7,0,0,1,.58-2.77A.78.78,0,0,0,13.11.45a7.28,7.28,0,0,0-.72,3.42,11.7,11.7,0,0,0,.67,2.79,17,17,0,0,1,.88,3.82c0,.73-.19,1.41-1.32,2.53A.78.78,0,0,0,12.62,14.11Z"/><path class="cls-1" d="M20.37,14.11a.77.77,0,0,0,.55.22.75.75,0,0,0,.54-.22,5.17,5.17,0,0,0,1.75-3.88,9.55,9.55,0,0,0-.74-2.95,9.9,9.9,0,0,1-.78-3.4,6.53,6.53,0,0,1,.54-2.78.76.76,0,0,0-.37-1,.78.78,0,0,0-1,.38,8,8,0,0,0-.69,3.42A11.15,11.15,0,0,0,21,7.81a8.59,8.59,0,0,1,.64,2.47A3.51,3.51,0,0,1,20.37,13,.78.78,0,0,0,20.37,14.11Z"/><path class="cls-1" d="M29.44,10.09A4,4,0,0,1,28.12,13a.77.77,0,0,0,1.09,1.1,5.47,5.47,0,0,0,1.78-4,9.2,9.2,0,0,0-.76-3,8.65,8.65,0,0,1-.79-3.53,6.71,6.71,0,0,1,.78-2.42A.78.78,0,0,0,28.81.45a8.06,8.06,0,0,0-.92,3,10.06,10.06,0,0,0,.89,4.15A8.1,8.1,0,0,1,29.44,10.09Z"/></svg>