<svg id="Capa_1" data-name="Capa 1" xmlns="http://www.w3.org/2000/svg" viewBox="0 0 36.82 37.62"><defs><style>.cls-1{fill:#b28a6c;}</style></defs><title>WEB_Marfil_novios_04</title><path class="cls-1" d="M36.8,1.27a1.14,1.14,0,0,0-.12-.49,1.08,1.08,0,0,0-1-.73L1.46,0a1.85,1.85,0,0,0-.23,0H1.15A1.12,1.12,0,0,0,.05,1.17l0,35.3a1.13,1.13,0,0,0,1.1,1.15H35.7v0a1.12,1.12,0,0,0,1.08-1.13l0-25.82V8.36ZM13.3,3.18l3,3,.32.32.31.31H13.31ZM12.22,5.92V6.8l-3.58,0L12.21,3.2ZM24.53,3.1l3.14,3.18.33.33.25.25-3.72,0ZM23.44,5.87v1H19.9l3.54-3.55Zm7.67-.45-.31.32-.51.5v-4h4Zm-1.91.45v.4l-4-4h4Zm-9.43-.45-.32.32-.5.5v-4h4Zm-1.91.5v.31l-3.95-4h3.95Zm-9.4-.5-.32.32-.57.57V2.25h4Zm-2,.5V6L2.78,2.25h3.7ZM2.25,3.28,4.63,5.67l.51.51.31.32.28.27H2.24Zm29,3.59,3.39-3.4V6.88ZM2.21,32l0-21.39V7.91H6.59s0,0,0,0a1.83,1.83,0,0,0,.61,1.93c.9.86,1.77,1.76,2.65,2.64l.26.25,2.26-2.26L9.78,7.91h7v4.63H20V7.91l6.86,0-2.48,2.47,2.34,2.35,1.18-1.19L29.47,10a1.8,1.8,0,0,0,.72-2L34.6,8l0,24Z"/></svg>