<?xml version="1.0" encoding="utf-8"?>
<!-- Generator: Adobe Illustrator 16.0.0, SVG Export Plug-In . SVG Version: 6.00 Build 0)  -->
<!DOCTYPE svg PUBLIC "-//W3C//DTD SVG 1.1//EN" "http://www.w3.org/Graphics/SVG/1.1/DTD/svg11.dtd">
<svg version="1.1" id="Layer_1" xmlns="http://www.w3.org/2000/svg" xmlns:xlink="http://www.w3.org/1999/xlink" x="0px" y="0px"
	 width="64px" height="64px" viewBox="0 0 64 64" enable-background="new 0 0 64 64" xml:space="preserve">
<g>
	<path fill="#010101" d="M8.971,48.872c0.172-0.026,0.348-0.046,0.527-0.06c0.179-0.014,0.36-0.02,0.546-0.02
		s0.364,0.006,0.537,0.02c0.172,0.014,0.344,0.033,0.516,0.06l3.081,6.937l3.159-6.937c0.133-0.026,0.288-0.046,0.467-0.06
		c0.179-0.014,0.361-0.02,0.547-0.02c0.172,0,0.35,0.006,0.536,0.02c0.186,0.014,0.351,0.033,0.497,0.06l0.576,10.89
		c-0.159,0.027-0.318,0.047-0.477,0.061c-0.159,0.012-0.318,0.019-0.477,0.019c-0.159,0-0.315-0.007-0.467-0.019
		c-0.152-0.014-0.295-0.033-0.427-0.061l-0.397-8.048l-2.822,6.001c-0.252,0.053-0.537,0.08-0.855,0.08
		c-0.278,0-0.53-0.027-0.755-0.08l-2.722-6.041l-0.358,8.088c-0.146,0.027-0.288,0.047-0.427,0.061
		c-0.139,0.012-0.282,0.019-0.427,0.019c-0.159,0-0.315-0.007-0.467-0.019c-0.153-0.014-0.295-0.033-0.428-0.061L8.971,48.872z"/>
	<path fill="#010101" d="M27.812,53.045c0-0.781-0.199-1.324-0.596-1.629c-0.398-0.305-0.974-0.457-1.729-0.457
		c-0.464,0-0.898,0.036-1.302,0.109c-0.404,0.072-0.798,0.168-1.182,0.287c-0.252-0.437-0.378-0.959-0.378-1.569
		c0.451-0.146,0.947-0.259,1.491-0.337c0.543-0.08,1.066-0.12,1.57-0.12c1.324,0,2.331,0.302,3.02,0.903
		c0.689,0.604,1.033,1.567,1.033,2.893v6.378c-0.463,0.106-1.026,0.216-1.688,0.328C27.388,59.943,26.711,60,26.022,60
		c-0.649,0-1.235-0.059-1.758-0.178c-0.524-0.12-0.967-0.312-1.331-0.577c-0.365-0.265-0.646-0.603-0.845-1.013
		c-0.199-0.412-0.298-0.907-0.298-1.49c0-0.57,0.116-1.07,0.348-1.501c0.231-0.431,0.546-0.788,0.944-1.073
		c0.397-0.285,0.854-0.497,1.371-0.636c0.516-0.14,1.059-0.208,1.629-0.208c0.424,0,0.772,0.009,1.043,0.029
		c0.272,0.02,0.5,0.043,0.686,0.069V53.045z M27.812,54.973c-0.199-0.025-0.45-0.053-0.755-0.08
		c-0.305-0.025-0.563-0.039-0.775-0.039c-0.822,0-1.448,0.152-1.878,0.457c-0.431,0.306-0.646,0.769-0.646,1.392
		c0,0.397,0.073,0.709,0.219,0.934c0.145,0.226,0.328,0.397,0.546,0.517c0.219,0.119,0.46,0.192,0.726,0.219
		c0.264,0.027,0.516,0.04,0.755,0.04c0.304,0,0.619-0.017,0.943-0.05c0.325-0.033,0.613-0.084,0.865-0.149V54.973z"/>
	<path fill="#010101" d="M32.226,49.566c0.146-0.025,0.284-0.045,0.417-0.06c0.133-0.013,0.271-0.021,0.416-0.021
		c0.146,0,0.293,0.008,0.439,0.021c0.145,0.015,0.277,0.034,0.396,0.06c0.039,0.199,0.08,0.461,0.119,0.785
		c0.039,0.325,0.061,0.6,0.061,0.824c0.277-0.449,0.645-0.84,1.102-1.172c0.457-0.331,1.043-0.497,1.76-0.497
		c0.105,0,0.215,0.004,0.326,0.011c0.113,0.006,0.209,0.017,0.289,0.029c0.027,0.119,0.047,0.246,0.059,0.377
		c0.014,0.133,0.021,0.271,0.021,0.418c0,0.159-0.01,0.325-0.031,0.496c-0.02,0.173-0.043,0.338-0.068,0.498
		c-0.107-0.027-0.217-0.04-0.328-0.04h-0.268c-0.357,0-0.699,0.049-1.023,0.149c-0.326,0.099-0.617,0.274-0.875,0.525
		c-0.26,0.252-0.463,0.596-0.615,1.034c-0.154,0.437-0.23,1-0.23,1.688v5.067c-0.145,0.027-0.307,0.046-0.486,0.06
		c-0.178,0.014-0.342,0.02-0.486,0.02s-0.307-0.006-0.486-0.02s-0.348-0.032-0.507-0.06V49.566z"/>
	<path fill="#010101" d="M40.594,51.117h-1.668c-0.053-0.212-0.08-0.471-0.08-0.775c0-0.291,0.027-0.549,0.08-0.775h1.668v-0.715
		c0-1.259,0.375-2.216,1.123-2.871s1.779-0.984,3.09-0.984c0.529,0,1.01,0.033,1.441,0.1c0.43,0.066,0.918,0.192,1.461,0.377
		c0,0.305-0.047,0.594-0.141,0.865c-0.092,0.271-0.205,0.52-0.338,0.745c-0.396-0.159-0.758-0.271-1.082-0.338
		c-0.324-0.065-0.719-0.099-1.182-0.099c-0.346,0-0.664,0.029-0.955,0.088c-0.291,0.061-0.543,0.174-0.754,0.339
		c-0.213,0.166-0.381,0.397-0.508,0.696c-0.125,0.297-0.189,0.679-0.189,1.142v0.655h6.143v10.195
		c-0.146,0.026-0.309,0.045-0.488,0.059c-0.178,0.014-0.34,0.021-0.486,0.021s-0.309-0.007-0.486-0.021
		c-0.18-0.014-0.342-0.032-0.488-0.059v-8.645h-4.193v8.645c-0.145,0.026-0.307,0.045-0.486,0.059
		c-0.178,0.014-0.342,0.021-0.486,0.021c-0.146,0-0.312-0.007-0.496-0.021c-0.188-0.014-0.352-0.032-0.498-0.059V51.117z"/>
	<path fill="#010101" d="M51.373,45.195c0.146-0.026,0.309-0.047,0.486-0.061c0.18-0.012,0.342-0.02,0.488-0.02
		c0.145,0,0.307,0.008,0.486,0.02c0.178,0.014,0.34,0.034,0.486,0.061v11.486c0,0.37,0.033,0.661,0.1,0.873
		c0.066,0.213,0.156,0.375,0.268,0.487c0.113,0.113,0.246,0.187,0.398,0.219c0.152,0.033,0.314,0.05,0.486,0.05
		c0.119,0,0.256-0.006,0.408-0.02s0.281-0.033,0.387-0.061c0.119,0.465,0.18,0.968,0.18,1.511c-0.188,0.065-0.412,0.11-0.676,0.129
		c-0.266,0.021-0.512,0.03-0.736,0.03c-0.383,0-0.742-0.047-1.072-0.14c-0.332-0.092-0.623-0.245-0.875-0.456
		c-0.252-0.213-0.451-0.498-0.596-0.854c-0.146-0.358-0.219-0.802-0.219-1.332V45.195z"/>
	<polygon fill="#010101" points="28.705,4 23.531,4 9.047,40.469 14.221,40.469 	"/>
	<polygon fill="#010101" points="23.791,4 28.963,4 41.119,40.469 35.945,40.469 	"/>
	<polygon fill="#010101" points="36.98,4 42.154,4 54.053,40.469 48.879,40.469 	"/>
	<polygon fill="#010101" points="41.637,4 36.463,4 21.979,40.469 27.152,40.469 	"/>
	<rect x="25.602" y="36.072" fill="#010101" width="12.414" height="4.396"/>
</g>
</svg>
