<svg id="Capa_1" data-name="Capa 1" xmlns="http://www.w3.org/2000/svg" xmlns:xlink="http://www.w3.org/1999/xlink" viewBox="0 0 42.76 38.21"><defs><style>.cls-1{fill:none;}.cls-2{clip-path:url(#clip-path);}.cls-3{fill:#b28a6c;}</style><clipPath id="clip-path"><rect class="cls-1" x="-1521.53" y="-303.55" width="1280" height="801.8"/></clipPath></defs><title>WEB_Marfil_novios_04</title><g class="cls-2"><image width="3971" height="2280" transform="translate(-1400.53 -303.55) scale(0.41)" xlink:href="../Dropbox (Panal)/PANAL/2018/MARFIL/WEB NOVIOS/PROCESO/Fotos finales/EVENTOS/Bicentenario/Principal.jpg"/></g><path class="cls-3" d="M28.34,1.82V3.74c0,3.71,0,7.43,0,11.14a1,1,0,0,0,.22.6,6,6,0,0,1,1.14,6.2,5.81,5.81,0,0,1-4.89,3.91,5.68,5.68,0,0,1-4-.86c-3.57-2.22-7.16-4.41-10.74-6.61-.66-.4-1.32-.79-2-1.17A6.17,6.17,0,0,1,5,10.79a6.15,6.15,0,0,1,7.52-5.17V1.82H1.17a2.29,2.29,0,0,1-.37,0A.92.92,0,0,1,0,.9.92.92,0,0,1,.82,0H34.14A.92.92,0,0,1,35,.91a.91.91,0,0,1-.88.91c-.42,0-.84,0-1.25,0H28.34Zm-9.09,9.79v2.6c0,.84-.33,1.17-1.16,1.17h-4.4c-.88,0-1.23-.35-1.23-1.24,0-2.07,0-4.15,0-6.22,0-.32-.11-.43-.4-.5A4.29,4.29,0,0,0,7.18,9.56a4.15,4.15,0,0,0,1.23,5.37c3.07,1.95,6.17,3.85,9.25,5.78l.3.15c-.41-3.62,1.12-6,4.5-7.25Zm9,7.89a4.27,4.27,0,0,0-4.31-4.26,4.28,4.28,0,1,0,0,8.56A4.3,4.3,0,0,0,28.25,19.5ZM14.35,1.83v11.7h3V1.83Zm9.1,0c0,.07,0,.11,0,.14,0,3.27,0,6.54,0,9.81a.53.53,0,0,0,.23.37c.85.54,1.71,1.07,2.57,1.6.08.05.17.08.25.12v-12Zm-1.81,0H19.25c0,2.49,0,4.95,0,7.41a.48.48,0,0,0,.22.34c.53.34,1.07.66,1.61,1l.55.3Z"/><path class="cls-3" d="M41.77,23.88l-5.12-.48L32.32,23a.92.92,0,1,1,.15-1.82l5.88.56,3.47.34a.91.91,0,0,1,.94,1A.93.93,0,0,1,41.77,23.88Z"/><path class="cls-3" d="M38.88,32.75c0,.8-.66,1.23-1.24,1a1.56,1.56,0,0,1-.34-.23L30,27.39A.9.9,0,1,1,31.12,26l4.59,3.85c.91.78,1.84,1.54,2.74,2.33A2.85,2.85,0,0,1,38.88,32.75Z"/><path class="cls-3" d="M26.21,29.26c0-.14,0-.28,0-.42a.88.88,0,0,1,.88-.86.85.85,0,0,1,.88.81c.13,1.55.25,3.09.38,4.64.09,1.13.19,2.27.28,3.4a4,4,0,0,1,0,.49.9.9,0,0,1-.85.89.92.92,0,0,1-1-.83q-.24-3-.46-6c-.05-.72-.11-1.44-.16-2.15Z"/></svg>