<svg id="Capa_1" data-name="Capa 1" xmlns="http://www.w3.org/2000/svg" viewBox="0 0 39.26 38.08"><defs><style>.cls-1{fill:#b28a6c;}</style></defs><title>WEB_Marfil_novios_04</title><path class="cls-1" d="M39.26,1.05a1,1,0,0,0-1-1H1.05A.88.88,0,0,0,.77.06a.59.59,0,0,0-.13,0,.72.72,0,0,0-.2.14A.43.43,0,0,0,.31.31S.27.37.25.39A1,1,0,0,0,0,1.05V37a1,1,0,0,0,1.05,1H38.21a1.07,1.07,0,0,0,.65-.25.47.47,0,0,1,.09-.06,1,1,0,0,1,.09-.13,1.48,1.48,0,0,0,.13-.21.61.61,0,0,0,0-.13,1.31,1.31,0,0,0,.06-.27V25.22h0V12.86h0V1.25a.29.29,0,0,0,0-.1A.54.54,0,0,0,39.26,1.05ZM12.5,24.17H2.1V13.91H12.5Zm12.16,2.7V36H14.59V26.26H24.66Zm0-15.06H14.59V2.1H24.66Zm12.5,12.36H26.76V13.91h10.4Z"/></svg>