<?xml version="1.0" encoding="utf-8"?>
<!-- Generator: Adobe Illustrator 16.0.0, SVG Export Plug-In . SVG Version: 6.00 Build 0)  -->
<!DOCTYPE svg PUBLIC "-//W3C//DTD SVG 1.1//EN" "http://www.w3.org/Graphics/SVG/1.1/DTD/svg11.dtd">
<svg version="1.1" id="Layer_1" xmlns="http://www.w3.org/2000/svg" xmlns:xlink="http://www.w3.org/1999/xlink" x="0px" y="0px"
	 width="16px" height="16px" viewBox="0 0 16 16" enable-background="new 0 0 16 16" xml:space="preserve">
<path fill-rule="evenodd" clip-rule="evenodd" fill="#010101" d="M12.397,3.579c-1.157-1.164-2.73-1.816-4.37-1.812
	c-3.406,0-6.18,2.771-6.18,6.177c-0.004,1.085,0.281,2.149,0.824,3.089l-0.877,3.201l3.276-0.86
	c0.907,0.492,1.921,0.751,2.953,0.753h0.003c3.404,0,6.176-2.771,6.178-6.179C14.205,6.298,13.563,4.746,12.397,3.579 M8.027,13.082
	H8.024c-0.921,0-1.822-0.246-2.613-0.715l-0.188-0.111l-1.944,0.51l0.519-1.896l-0.121-0.193C3.161,9.858,2.888,8.911,2.89,7.943
	c0-2.829,2.305-5.132,5.14-5.132c1.361-0.004,2.668,0.539,3.629,1.505c0.965,0.961,1.507,2.268,1.503,3.631
	C13.161,10.779,10.856,13.082,8.027,13.082 M10.842,9.236c-0.153-0.077-0.912-0.45-1.054-0.501C9.646,8.683,9.543,8.658,9.44,8.812
	C9.338,8.968,9.043,9.315,8.951,9.418C8.863,9.52,8.772,9.533,8.618,9.456C8.463,9.38,7.966,9.215,7.376,8.689
	C6.917,8.281,6.607,7.773,6.518,7.62C6.427,7.465,6.507,7.382,6.584,7.306c0.071-0.069,0.155-0.181,0.232-0.271
	C6.893,6.946,6.92,6.881,6.972,6.778c0.051-0.104,0.025-0.194-0.014-0.271C6.92,6.431,6.61,5.669,6.481,5.36
	C6.356,5.06,6.229,5.102,6.134,5.096C6.045,5.092,5.942,5.092,5.839,5.092c-0.103,0-0.271,0.038-0.413,0.194
	C5.285,5.439,4.887,5.812,4.887,6.572S5.441,8.067,5.518,8.17c0.077,0.101,1.09,1.66,2.639,2.329
	c0.367,0.159,0.653,0.254,0.878,0.325c0.37,0.117,0.707,0.101,0.974,0.062c0.297-0.044,0.914-0.374,1.043-0.735
	c0.127-0.359,0.127-0.669,0.088-0.733C11.102,9.354,10.998,9.315,10.842,9.236"/>
</svg>
