<?xml version="1.0" encoding="utf-8"?>
<!-- Generator: Adobe Illustrator 16.0.0, SVG Export Plug-In . SVG Version: 6.00 Build 0)  -->
<!DOCTYPE svg PUBLIC "-//W3C//DTD SVG 1.1//EN" "http://www.w3.org/Graphics/SVG/1.1/DTD/svg11.dtd">
<svg version="1.1" id="Layer_1" xmlns="http://www.w3.org/2000/svg" xmlns:xlink="http://www.w3.org/1999/xlink" x="0px" y="0px"
	 width="16px" height="16px" viewBox="0 0 16 16" enable-background="new 0 0 16 16" xml:space="preserve">
<path fill="#FFFFFF" d="M12.397,3.578c-1.156-1.164-2.729-1.815-4.37-1.812c-3.406,0-6.18,2.771-6.18,6.177
	c-0.004,1.085,0.281,2.148,0.824,3.089l-0.877,3.201l3.276-0.86c0.907,0.492,1.921,0.751,2.953,0.753h0.003
	c3.404,0,6.176-2.771,6.178-6.179C14.206,6.297,13.563,4.745,12.397,3.578 M8.028,13.081H8.025c-0.921,0-1.822-0.246-2.613-0.715
	l-0.188-0.111l-1.944,0.51l0.519-1.896l-0.121-0.193C3.162,9.856,2.889,8.91,2.891,7.942c0-2.829,2.305-5.132,5.14-5.132
	c1.361-0.004,2.668,0.539,3.629,1.505c0.965,0.961,1.507,2.268,1.503,3.631C13.162,10.778,10.856,13.081,8.028,13.081 M10.843,9.235
	c-0.152-0.077-0.912-0.45-1.054-0.502C9.647,8.683,9.544,8.657,9.44,8.812C9.339,8.967,9.044,9.313,8.952,9.417
	c-0.088,0.102-0.18,0.115-0.333,0.038C8.464,9.379,7.967,9.214,7.377,8.688C6.918,8.28,6.608,7.772,6.519,7.619
	C6.428,7.464,6.508,7.381,6.585,7.306C6.656,7.236,6.74,7.124,6.817,7.034C6.894,6.945,6.921,6.88,6.973,6.777
	c0.051-0.104,0.025-0.194-0.014-0.271C6.921,6.431,6.611,5.668,6.482,5.359C6.357,5.06,6.23,5.102,6.135,5.096
	C6.046,5.091,5.943,5.091,5.84,5.091S5.569,5.129,5.427,5.285C5.286,5.438,4.888,5.812,4.888,6.571s0.554,1.495,0.631,1.598
	c0.077,0.102,1.09,1.66,2.639,2.329c0.366,0.159,0.653,0.254,0.878,0.325c0.369,0.117,0.707,0.101,0.974,0.062
	c0.298-0.044,0.914-0.374,1.043-0.735c0.128-0.358,0.128-0.668,0.089-0.732S10.999,9.313,10.843,9.235"/>
</svg>
